# xmcd
#
# Track frame offsets:
#	150
#	23325
#	62084
#	86209
#	98678
#	119090
#	141364
#	165410
#	185757
#	209240
#	234743
#	250802
#	269477
#	291551
#	317316
#	341588
#
# Disc length: 4771 seconds
#
# Revision: 3
# Processed by: cddbd v1.5.2PL0 Copyright (c) Steve Scherf et al.
# Submitted via: EZCDAudioConverter 6.0.0.1
#
DISCID=f712a110
DTITLE=Various Artist - Akella Presents - Vol.73 - Electric Blues  Cd2
DYEAR=2016
DGENRE=Blues
TTITLE0=Tinsley Ellis - All In The Name Of Love
TTITLE1=Memo Gonzalez And The Bluescasters - What's In A Name
TTITLE2=Modern Blues Band - Thrill Is Gone
TTITLE3=The Most Southern Blues Band - No Llores
TTITLE4=Slowburner - Tomorrow
TTITLE5=Neal Black and Larry Garner - Do Not Stand At My Grave And Weep
TTITLE6=Big Harp George - Wash My Horse In Champagne
TTITLE7=Red Rooster - I Found The Blues
TTITLE8=Eddie Baytos and The Nervis Bros - Blind Suspicion
TTITLE9=Ronnie Baker Brooks - Other Side Of Love
TTITLE10=Rick Vito - Homework
TTITLE11=Ahlqvist and H.A.R.P - Hold On
TTITLE12=Snowy White - Highway To The Sun
TTITLE13=Barry Levenson - This Time I'm Gone For Good
TTITLE14=Dave Sadler - You Shoulda Known
TTITLE15=Papa Mali - Do Your Thing
EXTD=
EXTT0=
EXTT1=
EXTT2=
EXTT3=
EXTT4=
EXTT5=
EXTT6=
EXTT7=
EXTT8=
EXTT9=
EXTT10=
EXTT11=
EXTT12=
EXTT13=
EXTT14=
EXTT15=
PLAYORDER=
